<svg xmlns="http://www.w3.org/2000/svg" width="480" height="480" style="width:100%;height:100%;transform:translate3d(0,0,0);content-visibility:visible" viewBox="0 0 480 480"><defs><clipPath id="a"><path d="M0 0h480v480H0z"/></clipPath></defs><g clip-path="url(#a)"><path fill="#fff" d="M0-10c-5.52 0-10 4.48-10 10s4.48 10 10 10S10 5.52 10 0 5.52-10 0-10zm0 3c1.66 0 3 1.34 3 3S1.66-1 0-1s-3-1.34-3-3 1.34-3 3-3zM0 7.2a7.2 7.2 0 0 1-6-3.22C-5.97 1.99-2 .9 0 .9c1.99 0 5.97 1.09 6 3.08A7.2 7.2 0 0 1 0 7.2z" style="display:block" transform="matrix(20 0 0 20 240 240)"/></g></svg>